<?xml version="1.0" standalone="no"?><!DOCTYPE svg PUBLIC "-//W3C//DTD SVG 1.1//EN" "http://www.w3.org/Graphics/SVG/1.1/DTD/svg11.dtd"><svg t="1615184697886" class="icon" viewBox="0 0 1024 1024" version="1.1" xmlns="http://www.w3.org/2000/svg" p-id="1763" width="200" height="200" xmlns:xlink="http://www.w3.org/1999/xlink"><defs><style type="text/css"></style></defs><path d="M1008.125 512C1008.125 237.99946484 786.01603906 15.875 512 15.875S15.875 237.99946484 15.875 512c0 144.43439062 61.7675625 274.41914062 160.27938281 365.08598437 8.44962891 10.82172656 20.74422656 21.02329687 36.40317188 30.43416797C295.79802734 970.62105078 399.50365625 1008.125 512 1008.125c118.24829297 0 226.80664453-41.44194141 312.04712109-110.49633984 6.09303516-4.43411719 11.47289062-9.00776953 16.13956641-13.70545313C943.11712109 793.02380469 1008.125 660.13982422 1008.125 512zM62.38671875 512C62.38671875 263.67393359 263.6894375 62.38671875 512 62.38671875c248.34157031 0 449.61328125 201.28721484 449.61328125 449.61328125 0 109.65912891-39.30240234 210.12444141-104.52733594 288.15560156-13.87599609-71.16292969-68.13966797-71.45750391-141.1630664-86.60482031-76.88387109-16.04654297-145.31811328-18.91476563-117.76767188-121.58163281 37.06983984-27.14733984 45.48846094-82.62031641 90.99242578-100.97694141 17.13181641-22.12407422 12.89925-58.37220703 0-74.15518359s-21.03880078-5.9535-23.92252734-16.82173828c-2.66667188-57.37995703 19.348875-141.67469531-20.0775586-168.82203516-6.48063281-4.01551172-12.62017969-5.37985547-19.47290625-5.37985547-6.89923828 0-14.74421484 1.34883984-22.20159375 1.34883984-4.96125 0-10.71319922-0.77519531-15.28685156-2.68217578-22.17058594-8.21707031-23.34888281-37.47294141-47.81404687-40.15511718-6.48063281 0-13.17832031 0-20.26360547 0-33.64347656 22.72872656-73.96913672 18.74422266-108.97695703 28.68222656-1.51938281 0.38759766-3.62791406 0.75969141-4.96125 1.53488672-20.65120312 6.49613672-33.10083984 18.72871875-41.30240625 34.60471875-11.08529297 21.98453906-13.37987109 51.78304687-13.3798711 85.06993359-0.18604688 19.53492187 0.38759766 40.75976953 0.38759766 62.34120703-17.41088672 9.1783125-24.49617188 28.26362109-24.86826563 48.15513281-0.38759766 11.47289062 1.14728906 23.70547266 4.57365235 33.67448438 5.53489453 18.54267187 22.77523828 23.30237109 36.91480078 40.52721094 16.6201875 20.43414844 28.10858203 48.18614063 42.63574219 63.47299218 5.75194922 5.37985547 11.30234766 9.1783125 18.74422265 10.71319922 0 22.37213672 0 44.35667578 0 66.52726172-5.75194922 7.45737891-11.87599219 13.76746875-18.74422265 19.11631641-62.71330078 52.75979297-190.43448047 30.0155625-231.53533594 108.62036719-5.11628906 10.23257812-7.50389063 13.59692578-9.11629688 16.8837539C103.14648828 725.64382812 62.38671875 623.61262109 62.38671875 512z" fill="#ffffff" p-id="1764"></path></svg>