<?xml version="1.0" standalone="no"?><!DOCTYPE svg PUBLIC "-//W3C//DTD SVG 1.1//EN" "http://www.w3.org/Graphics/SVG/1.1/DTD/svg11.dtd"><svg t="1615184755916" class="icon" viewBox="0 0 1024 1024" version="1.1" xmlns="http://www.w3.org/2000/svg" p-id="2633" xmlns:xlink="http://www.w3.org/1999/xlink" width="200" height="200"><defs><style type="text/css"></style></defs><path d="M865.6 384H160a64 64 0 0 0-64 64v512a64 64 0 0 0 64 64h705.6A64 64 0 0 0 928 960V448a64 64 0 0 0-62.4-64zM560 730.56v109.44a48 48 0 1 1-96 0v-109.44a96 96 0 1 1 96 0zM512 0a276.8 276.8 0 0 0-275.84 275.84V384h96V285.12a179.2 179.2 0 0 1 358.4 0V384h96V275.84A276.8 276.8 0 0 0 512 0z" p-id="2634" fill="#ffffff"></path></svg>